Coordinates
version=1
nRows=13
nColumns=36
inDegrees=yes

Units are S.I. units (second, meters, Newtons, ...)
If the header above contains a line with 'inDegrees', this indicates whether rotational values are in degrees (yes) or radians (no).

endheader
time	pelvis_tilt	pelvis_list	pelvis_rotation	pelvis_tx	pelvis_ty	pelvis_tz	hip_flexion_r	hip_adduction_r	hip_rotation_r	knee_angle_r	knee_angle_r_beta	ankle_angle_r	subtalar_angle_r	mtp_angle_r	hip_flexion_l	hip_adduction_l	hip_rotation_l	knee_angle_l	knee_angle_l_beta	ankle_angle_l	subtalar_angle_l	mtp_angle_l	lumbar_extension	lumbar_bending	lumbar_rotation	arm_flex_r	arm_add_r	arm_rot_r	elbow_flex_r	pro_sup_r	arm_flex_l	arm_add_l	arm_rot_l	elbow_flex_l	pro_sup_l
      3.38333330	    -14.00674798	      1.14993795	      0.82126236	      0.00777887	      1.04124029	      0.01003726	     34.96045179	     -1.98667437	      5.39118959	     49.85800206	      0.87018629	     27.74030158	    -21.74718165	     -7.49999987	     34.83867230	      0.69566428	     -0.09352807	     48.48548146	      0.84623129	     17.93087775	    -26.96243564	     -7.49999987	    -10.35446891	     -2.28881146	     -2.09359539	      5.20560456	    -13.24060404	     49.48354967	     27.98263436	     56.29233347	     11.65577235	    -16.66571710	     55.48994933	     28.30312798	     46.87942901
      3.40000000	    -14.90466833	      0.93186902	      0.91178523	      0.01704266	      1.02977809	      0.00824695	     36.81918779	     -1.87124353	      5.15464981	     53.28265800	      0.92995782	     30.71908454	    -20.57203220	     -7.49999987	     37.09326247	      0.54903458	      0.15269828	     52.40702957	      0.91467522	     20.86744053	    -26.41761200	     -7.49999987	     -9.96502914	     -2.02801454	     -1.62635184	      8.34642518	    -13.48066651	     48.68660178	     30.38621367	     56.76478373	     16.16956391	    -16.75609127	     54.06896140	     31.62313208	     47.43157805
      3.41666670	    -15.70894250	      0.88949105	      0.87646311	      0.03344776	      1.01801479	      0.00829278	     38.21834965	     -1.77676659	      5.24020523	     56.29746446	      0.98257612	     35.11668299	    -17.31724432	     -7.49999987	     38.50721286	      0.56093081	      0.41496410	     55.60298121	      0.97045510	     24.48956627	    -25.19775366	     -7.49999987	     -9.40992132	     -1.94438050	     -2.03022285	     10.70672536	    -12.98840077	     42.69644129	     33.58305443	     67.41228473	     18.55240234	    -16.62398261	     46.17110473	     35.85068872	     55.56475829
      3.43333330	    -16.67138379	      0.74969854	      0.60423063	      0.03684850	      1.00763579	      0.01107909	     39.85525128	     -1.55971710	      5.08800318	     59.51289583	      1.03869598	     37.77766481	    -16.04494236	     -7.49999987	     40.02729820	      0.30657396	      0.63144896	     58.48695655	      1.02078996	     27.10627674	    -24.54647810	     -7.49999987	     -8.46486604	     -1.89591898	     -1.69155663	     14.03466510	    -12.86830756	     41.17915286	     36.90223910	     67.32182372	     22.83400579	    -16.17626124	     43.76472119	     38.88933361	     56.34364802
      3.45000000	    -18.05829756	      0.77318227	      0.07605569	      0.03818391	      0.99839864	      0.01377762	     42.15750090	     -1.18603236	      5.28081181	     62.47080645	      1.09032126	     40.23709088	    -14.40814833	     -7.49999987	     41.98565473	      0.13226874	      0.78689751	     61.03564085	      1.06527289	     29.28686436	    -24.29088542	     -7.49999987	     -6.99088749	     -2.04015188	     -1.46123396	     18.55513294	    -12.16099271	     40.33426079	     40.87381700	     67.55524010	     27.67458111	    -15.50418098	     41.87100309	     41.12833681	     57.29269264
      3.46666670	    -19.71437078	      0.68468996	     -0.43328463	      0.02457176	      0.99157317	      0.01604067	     45.38250479	     -0.52426942	      5.45636818	     65.15262668	      1.13712785	     42.22668915	    -13.42358648	     -7.49999987	     44.91511744	     -0.25178112	      0.97128402	     63.46414385	      1.10765827	     30.34698810	    -24.90243143	     -7.49999987	     -5.81598663	     -2.14978412	     -1.10836682	     26.02441845	    -10.69599128	     39.29833341	     45.89717143	     69.25453041	     36.04594485	    -14.16355144	     40.28592141	     43.12265318	     58.48345998
      3.48333330	    -20.37961108	      0.72969028	     -0.94564470	      0.03961828	      0.99692173	      0.01453701	     46.21983469	     -0.05570906	      5.84729172	     66.15778724	      1.15467121	     43.25987377	    -11.93585221	     -7.49999987	     45.53292046	     -0.22878552	      1.32911163	     64.30703743	      1.12236954	     31.16620288	    -24.50798459	     -7.49999987	     -5.50156961	     -2.23232616	     -0.18067203	     30.96929175	     -8.60818127	     32.14760564	     50.50689301	     80.72922105	     42.36794203	    -11.06647589	     37.77372652	     43.88984881	     66.32638622
      3.50000000	    -21.17199168	      0.90636766	     -1.32798158	      0.04652257	      0.99308225	      0.01494424	     46.99584345	      0.07882440	      6.05353012	     67.04534384	      1.17016200	     43.44185725	    -12.17280245	     -7.49999987	     46.16869198	     -0.15622608	      1.19775814	     64.66719280	      1.12865543	     31.27431702	    -25.23352844	     -7.49999987	     -4.77646013	     -2.31452711	      0.80550900	     35.95042696	     -7.06019163	     27.64007228	     54.18841929	     81.11836124	     47.04006096	     -8.62198318	     34.97913589	     48.54088217	     66.96491922
      3.51666670	    -21.92346347	      1.27449926	     -1.76853115	      0.04686714	      0.98708349	      0.01596646	     47.71356524	      0.09836005	      6.67757749	     67.51531697	      1.17836458	     43.41351453	    -12.52493449	     -7.49999987	     46.53359116	      0.12957611	      1.28342238	     64.49869487	      1.12571459	     31.20328681	    -26.27142177	     -7.49999987	     -3.00540203	     -2.72492488	      2.57281115	     39.61008691	     -6.59847181	     24.18482966	     58.50960093	     79.39729955	     49.06319658	     -6.95549669	     33.20731915	     55.88619814	     66.94238824
      3.53333330	    -22.13088693	      1.49035298	     -1.80279675	      0.06169200	      0.99699023	      0.01756626	     46.42602790	      0.03805321	      7.10027515	     65.98083887	      1.15158288	     43.44426866	    -12.22383098	     -7.49999987	     45.25667718	      0.48451762	      1.61365546	     63.07246283	      1.10082214	     30.94117155	    -26.20756888	     -7.49999987	     -1.44667611	     -2.99931144	      3.56834833	     40.17811036	     -6.46830877	     20.28007455	     64.86012525	     78.46543351	     48.36961425	     -6.28740325	     30.67988165	     65.75540600	     67.66070149
      3.55000000	    -22.25269749	      1.46260401	     -1.75646583	      0.06687586	      1.00665680	      0.01664882	     44.79427302	      0.17410577	      7.40825739	     63.04552134	      1.10035193	     42.71681736	    -12.26696246	     -7.49999987	     43.75883750	      0.64599132	      2.02673684	     60.72908407	      1.05992247	     30.29782313	    -26.15057383	     -7.49999987	     -0.01609551	     -2.89378150	      3.43857924	     41.05890027	     -5.82618875	     18.00548967	     69.43005157	     90.64464903	     47.78974171	     -5.55637452	     27.63989498	     72.80527240	     80.75171047
      3.56666670	    -21.75613812	      1.44368223	     -1.60098439	      0.07381689	      1.02034628	      0.01710738	     42.02707162	      0.13565898	      7.71607353	     59.20372732	      1.03329997	     41.38452371	    -12.05995757	     -7.49999987	     41.12014433	      0.79378684	      2.32896169	     57.56945539	      1.00477655	     28.53213705	    -26.30816935	     -7.49999987	      0.33767885	     -2.92441452	      2.73011960	     45.93721564	     -5.32965380	     20.35278023	     71.19932275	     91.21258505	     46.36760593	     -4.13911575	     24.45235746	     77.56004120	     83.72508703
      3.58333330	    -21.01526585	      1.40412123	     -1.42072989	      0.08843677	      1.03242601	      0.01575865	     38.42764021	     -0.29202234	      7.68056129	     55.32873961	      0.96566868	     38.76119833	    -12.94242194	     -7.49999987	     38.15276565	      0.99683966	      2.62666465	     54.14649294	      0.94503458	     26.75976541	    -25.92438990	     -7.49999987	     -0.34987541	     -2.73029360	      1.60597900	     50.23775114	     -5.64996252	     26.00647914	     74.77423314	     91.56953847	     51.37854928	     -5.61583455	     29.57695863	     79.37103504	     84.11671373
